<?xml version="1.0" encoding="utf-8"?>
<!-- Generator: Adobe Illustrator 28.1.0, SVG Export Plug-In . SVG Version: 6.00 Build 0)  -->
<svg version="1.1" id="Calque_1" xmlns="http://www.w3.org/2000/svg" xmlns:xlink="http://www.w3.org/1999/xlink" x="0px" y="0px"
	 viewBox="0 0 512 512" style="enable-background:new 0 0 512 512;" xml:space="preserve">
<style type="text/css">
	.st0{fill:#FFFFFF;}
</style>
<g transform="matrix(6.123233995736766e-17,1,-1,6.123233995736766e-17,23.998250007629395,-0.001750946044921875)">
	<g>
		<path class="st0" d="M166.1-30h179.8c111.8,0,157.3-79.1,101.6-175.7l-24.9-43.1c-6.1-10.4-17.1-16.9-29.3-16.9H118.6
			c-12.1,0-23.2,6.4-29.3,16.9l-24.9,43.1C8.9-109,54.4-30,166.1-30z M148-299.3h216.5c13.1,0,21.2-14.2,14.4-25.2l-21.5-37
			c-55.5-96.6-147.1-96.6-202.7,0l-21.5,37C126.8-313.5,134.8-299.3,148-299.3z"/>
	</g>
</g>
</svg>
