<?xml version="1.0" encoding="utf-8"?>
<!-- Generator: Adobe Illustrator 28.1.0, SVG Export Plug-In . SVG Version: 6.00 Build 0)  -->
<svg version="1.1" id="Calque_1" xmlns="http://www.w3.org/2000/svg" xmlns:xlink="http://www.w3.org/1999/xlink" x="0px" y="0px"
	 viewBox="0 0 512 512" style="enable-background:new 0 0 512 512;" xml:space="preserve">
<style type="text/css">
	.st0{fill:#FFFFFF;}
</style>
<g>
	<g>
		<path class="st0" d="M342,275.3v90.3c0,75.3-30.1,105.3-105.3,105.3h-90.3C71.1,471,41,440.9,41,365.7v-90.3
			C41,200.1,71.1,170,146.3,170h90.3C311.9,170,342,200.1,342,275.3z"/>
		<path class="st0" d="M365.7,41h-90.3c-66.3,0-97.4,23.5-103.9,80.4c-1.3,11.8,8.5,21.7,20.4,21.7h44.7
			c90.3,0,132.2,41.9,132.2,132.2V320c0,11.9,9.8,21.8,21.7,20.4c57-6.5,80.4-37.6,80.4-103.9v-90.3C471,71.1,440.9,41,365.7,41z"/>
	</g>
</g>
</svg>
